<svg width="64" height="64" viewBox="0 0 64 64" xmlns="http://www.w3.org/2000/svg">
  <!-- Base/background -->
  <circle cx="32" cy="32" r="28" fill="#1F1A17"/>

  <!-- Volcano base -->
  <path d="M16 48 C 16 48, 24 20, 32 8 C 40 20, 48 48, 48 48 Z" fill="#4B2821"/>

  <!-- Magma/lava -->
  <path d="M24 44 C 24 44, 28 24, 32 16 C 36 24, 40 44, 40 44 Z" fill="#D73502"/>

  <!-- Flame effect -->
  <path d="M28 40 C 28 40, 30 28, 32 22 C 34 28, 36 40, 36 40 Z" fill="#FF5722"/>

  <!-- Bright center -->
  <path d="M30 36 C 30 36, 31 28, 32 24 C 33 28, 34 36, 34 36 Z" fill="#FFEB3B"/>

  <!-- Embers/sparks -->
  <circle cx="28" cy="18" r="1.5" fill="#FFEB3B">
    <animate attributeName="opacity" values="1;0.3;1" dur="2s" repeatCount="indefinite"/>
  </circle>
  <circle cx="36" cy="20" r="1" fill="#FFEB3B">
    <animate attributeName="opacity" values="0.3;1;0.3" dur="1.5s" repeatCount="indefinite"/>
  </circle>
  <circle cx="24" cy="24" r="1.2" fill="#FFEB3B">
    <animate attributeName="opacity" values="0.5;1;0.5" dur="2.2s" repeatCount="indefinite"/>
  </circle>
  <circle cx="38" cy="28" r="0.8" fill="#FFEB3B">
    <animate attributeName="opacity" values="1;0.4;1" dur="1.8s" repeatCount="indefinite"/>
  </circle>

  <!-- Outer glow effect -->
  <circle cx="32" cy="32" r="30" fill="none" stroke="#FF5722" stroke-width="2" opacity="0.3">
    <animate attributeName="opacity" values="0.3;0.1;0.3" dur="3s" repeatCount="indefinite"/>
    <animate attributeName="r" values="29;31;29" dur="3s" repeatCount="indefinite"/>
  </circle>
</svg>
